<svg xmlns="http://www.w3.org/2000/svg" viewBox="0 0 427.38 108.03"><defs><style>.cls-1{fill:#ffc600;}</style></defs><title>educacion2</title><g id="Capa_2" data-name="Capa 2"><g id="Capa_1-2" data-name="Capa 1"><path class="cls-1" d="M99.82,0A68.09,68.09,0,0,0,52.67,18.89,68.09,68.09,0,0,0,5.52,0H0V83.93H5.52a57.35,57.35,0,0,1,27.79,7.18,57.38,57.38,0,0,1,15.18,12.23L52.63,108l4.13-4.69a57.18,57.18,0,0,1,43-19.41h5.51L105.34,0ZM11,11.3a57.27,57.27,0,0,1,22.28,6.91A57.43,57.43,0,0,1,47.15,29.06v58a67,67,0,0,0-8.48-5.62A68.24,68.24,0,0,0,11,73.12ZM58.19,29.06A56.51,56.51,0,0,1,94.31,11.3l-.08,61.82a67.43,67.43,0,0,0-36,13.9Z"/><path class="cls-1" d="M179.89,33c0,.62-.33.93-1,.93h-18.6v8.22h16.17c.65,0,1,.31,1,.93V47.8a.87.87,0,0,1-1,1H160.31v7.85h18.6c.65,0,1,.31,1,.93v4.81a.87.87,0,0,1-1,1H153.23c-.69,0-1-.33-1-1V28.17c0-.66.35-1,1-1h25.68a.86.86,0,0,1,1,1Z"/><path class="cls-1" d="M217,62.48a.85.85,0,0,1-.77,1.09,14.37,14.37,0,0,1-4,.62q-4.81,0-6.51-3.26a12,12,0,0,1-8.58,3.26,13.39,13.39,0,0,1-9.79-3.72,12.85,12.85,0,0,1-3.8-9.62,12.9,12.9,0,0,1,3.8-9.66,13.39,13.39,0,0,1,9.79-3.72,11.85,11.85,0,0,1,7.18,2.22V26.1a.87.87,0,0,1,1-1h5.84a.86.86,0,0,1,1,1V55.56c0,1.31.57,2,1.71,2a6.71,6.71,0,0,0,1.55-.15c.72-.07,1.1.2,1.14.82Zm-19.17-4.34a6,6,0,0,0,4.7-2,7.6,7.6,0,0,0,1.81-5.25,7.65,7.65,0,0,0-1.81-5.29,6,6,0,0,0-4.7-2,6.2,6.2,0,0,0-4.8,2,7.54,7.54,0,0,0-1.86,5.29A7.49,7.49,0,0,0,193,56.1,6.2,6.2,0,0,0,197.81,58.14Z"/><path class="cls-1" d="M251.7,62.48a1,1,0,0,1-.78,1.09,14.48,14.48,0,0,1-3.92.62c-3.35,0-5.65-1-6.93-3q-3.25,3-8.78,3a10.81,10.81,0,0,1-8.09-3.13,11.31,11.31,0,0,1-3.08-8.29V39.28a.87.87,0,0,1,1-1h5.78a.87.87,0,0,1,1,1V51.73A6,6,0,0,0,229.35,56a5.1,5.1,0,0,0,4,1.6,5.69,5.69,0,0,0,4.14-1.52A5.46,5.46,0,0,0,239,52V39.28a.86.86,0,0,1,1-1h5.84a.86.86,0,0,1,1,1V55.5c0,1.35.57,2,1.7,2a7.54,7.54,0,0,0,1.61-.15.9.9,0,0,1,1.13.82Z"/><path class="cls-1" d="M268.28,64.19q-6.42,0-10.31-3.67a12.64,12.64,0,0,1-3.91-9.67A12.68,12.68,0,0,1,258,41.14q3.9-3.68,10.31-3.67A14.47,14.47,0,0,1,277,40a10.61,10.61,0,0,1,4.34,6.82c.1.69-.19,1-.88,1h-5.53a1.17,1.17,0,0,1-1.08-.83,4.72,4.72,0,0,0-2.05-2.4,6.54,6.54,0,0,0-3.48-.91,6.44,6.44,0,0,0-4.91,2,7.2,7.2,0,0,0-1.86,5.16A7.14,7.14,0,0,0,263.37,56a6.48,6.48,0,0,0,4.91,1.93,6.78,6.78,0,0,0,3.51-.88,4.35,4.35,0,0,0,2-2.42,1.22,1.22,0,0,1,1.08-.83h5.53c.69,0,1,.35.88,1A10.56,10.56,0,0,1,277,61.65,14.47,14.47,0,0,1,268.28,64.19Z"/><path class="cls-1" d="M318.3,62.48a.91.91,0,0,1-.82,1.09,14.1,14.1,0,0,1-3.88.62q-4.75,0-6.51-3.16a12.74,12.74,0,0,1-8.68,3.16,13.43,13.43,0,0,1-9.8-3.72,12.88,12.88,0,0,1-3.79-9.62,12.93,12.93,0,0,1,3.79-9.66,13.43,13.43,0,0,1,9.8-3.72,11.52,11.52,0,0,1,7.33,2.38v-.57a.87.87,0,0,1,1-1h5.68a.86.86,0,0,1,1,1V55.5c0,1.35.57,2,1.71,2a7.44,7.44,0,0,0,1.6-.15c.69-.07,1.05.2,1.09.82Zm-19.22-4.34a6,6,0,0,0,4.7-2,7.6,7.6,0,0,0,1.81-5.25,7.65,7.65,0,0,0-1.81-5.29,6,6,0,0,0-4.7-2,6.21,6.21,0,0,0-4.81,2,7.54,7.54,0,0,0-1.86,5.29,7.49,7.49,0,0,0,1.86,5.25A6.21,6.21,0,0,0,299.08,58.14Z"/><path class="cls-1" d="M334.88,64.19a14.48,14.48,0,0,1-10.31-3.67,12.66,12.66,0,0,1-3.9-9.67,12.71,12.71,0,0,1,3.9-9.71q3.92-3.68,10.31-3.67A14.43,14.43,0,0,1,343.56,40a10.63,10.63,0,0,1,4.35,6.82c.1.69-.19,1-.88,1H341.5a1.17,1.17,0,0,1-1.09-.83,4.75,4.75,0,0,0-2-2.4,6.55,6.55,0,0,0-3.49-.91,6.46,6.46,0,0,0-4.91,2,7.2,7.2,0,0,0-1.86,5.16A7.14,7.14,0,0,0,330,56a6.5,6.5,0,0,0,4.91,1.93,6.79,6.79,0,0,0,3.52-.88,4.3,4.3,0,0,0,2-2.42,1.25,1.25,0,0,1,1.09-.83H347c.69,0,1,.35.88,1a10.58,10.58,0,0,1-4.35,6.82A14.43,14.43,0,0,1,334.88,64.19Z"/><path class="cls-1" d="M359.92,32.46a5,5,0,0,1-6.56,0A4,4,0,0,1,352,29.41a3.93,3.93,0,0,1,1.32-3,5,5,0,0,1,6.56,0,3.93,3.93,0,0,1,1.32,3A4,4,0,0,1,359.92,32.46Zm-6.17,30.9a.87.87,0,0,1-1-1V39.28a.87.87,0,0,1,1-1h5.78a.87.87,0,0,1,1,1v23.1a.87.87,0,0,1-1,1Z"/><path class="cls-1" d="M389.87,60.52a14.48,14.48,0,0,1-10.31,3.67q-6.42,0-10.31-3.67a12.63,12.63,0,0,1-3.9-9.67,12.67,12.67,0,0,1,3.9-9.71q3.9-3.68,10.31-3.67t10.31,3.67a12.71,12.71,0,0,1,3.9,9.71A12.66,12.66,0,0,1,389.87,60.52Zm-15.25-4.63a7.39,7.39,0,0,0,9.87,0,6.8,6.8,0,0,0,1.89-5,6.89,6.89,0,0,0-1.89-5.06,7.33,7.33,0,0,0-9.87,0,6.89,6.89,0,0,0-1.89,5.06A6.8,6.8,0,0,0,374.62,55.89ZM377,34.16a.87.87,0,0,1-.75-.33.73.73,0,0,1,0-.8l3.41-6.36A1.2,1.2,0,0,1,380.8,26h6.09a.79.79,0,0,1,.75.31c.12.2.06.5-.18.88l-4.39,6.45a1.38,1.38,0,0,1-1.19.57Z"/><path class="cls-1" d="M416.12,37.47a11,11,0,0,1,8.16,3.13,11.24,11.24,0,0,1,3.1,8.29V62.38a.87.87,0,0,1-1,1h-5.79c-.69,0-1-.33-1-1V49.92a6,6,0,0,0-1.47-4.23,5.12,5.12,0,0,0-4-1.61A5.72,5.72,0,0,0,410,45.61a5.39,5.39,0,0,0-1.57,4V62.38a.87.87,0,0,1-1,1h-5.78a.87.87,0,0,1-1-1V46.15a1.78,1.78,0,0,0-2-2,10.85,10.85,0,0,0-1.14.15c-.76,0-1.13-.27-1.13-.83V39.23a1.07,1.07,0,0,1,.77-1.14,10.36,10.36,0,0,1,3.72-.62c3,0,5,1.08,6.2,3.26Q410.33,37.46,416.12,37.47Z"/></g></g></svg>